<svg width="512" height="512" viewBox="0 0 512 512" fill="none" xmlns="http://www.w3.org/2000/svg">
<rect width="512" height="512" rx="60" fill="url(#paint0_linear_10_1427)"/>
<circle opacity="0.35" cx="256" cy="256" r="210" fill="url(#paint1_radial_10_1427)"/>
<path fill-rule="evenodd" clip-rule="evenodd" d="M345.011 215.846C349.791 211.058 357.547 211.05 362.335 215.829L394.154 247.586C396.468 249.896 397.763 253.036 397.75 256.306C397.737 259.576 396.416 262.705 394.083 264.997L362.265 296.241C357.437 300.981 349.681 300.91 344.941 296.083C340.201 291.256 340.272 283.5 345.099 278.759L355.541 268.506H333C326.235 268.506 320.75 263.022 320.75 256.256C320.75 249.491 326.235 244.006 333 244.006H355.885L345.028 233.171C340.24 228.391 340.232 220.635 345.011 215.846Z" fill="white"/>
<path fill-rule="evenodd" clip-rule="evenodd" d="M166.989 215.846C162.209 211.058 154.453 211.05 149.665 215.829L117.846 247.586C115.532 249.896 114.237 253.036 114.25 256.306C114.263 259.576 115.584 262.705 117.917 264.997L149.735 296.241C154.563 300.981 162.319 300.91 167.059 296.083C171.799 291.256 171.728 283.5 166.901 278.759L156.459 268.506H179C185.765 268.506 191.25 263.022 191.25 256.256C191.25 249.491 185.765 244.006 179 244.006H156.115L166.972 233.171C171.76 228.391 171.768 220.635 166.989 215.846Z" fill="white"/>
<path fill-rule="evenodd" clip-rule="evenodd" d="M215.846 166.989C211.058 162.209 211.05 154.453 215.829 149.665L247.586 117.846C249.896 115.532 253.036 114.237 256.306 114.25C259.576 114.263 262.705 115.584 264.997 117.917L296.241 149.735C300.981 154.563 300.91 162.319 296.083 167.059C291.256 171.799 283.5 171.728 278.759 166.901L268.506 156.459L268.506 179C268.506 185.765 263.022 191.25 256.256 191.25C249.491 191.25 244.006 185.765 244.006 179L244.006 156.115L233.171 166.972C228.391 171.76 220.635 171.768 215.846 166.989Z" fill="white"/>
<path fill-rule="evenodd" clip-rule="evenodd" d="M215.846 345.011C211.058 349.791 211.05 357.547 215.829 362.335L247.586 394.154C249.896 396.468 253.036 397.763 256.306 397.75C259.576 397.737 262.705 396.416 264.997 394.083L296.241 362.265C300.981 357.437 300.91 349.681 296.083 344.941C291.256 340.201 283.5 340.272 278.759 345.099L268.506 355.541L268.506 333C268.506 326.235 263.022 320.75 256.256 320.75C249.491 320.75 244.006 326.235 244.006 333L244.006 355.885L233.171 345.028C228.391 340.24 220.635 340.232 215.846 345.011Z" fill="white"/>
<path fill-rule="evenodd" clip-rule="evenodd" d="M256 284C271.464 284 284 271.464 284 256C284 240.536 271.464 228 256 228C240.536 228 228 240.536 228 256C228 271.464 240.536 284 256 284ZM256 308.5C284.995 308.5 308.5 284.995 308.5 256C308.5 227.005 284.995 203.5 256 203.5C227.005 203.5 203.5 227.005 203.5 256C203.5 284.995 227.005 308.5 256 308.5Z" fill="white"/>
<defs>
<linearGradient id="paint0_linear_10_1427" x1="0" y1="0" x2="512" y2="512" gradientUnits="userSpaceOnUse">
<stop stop-color="#9C4DF9"/>
<stop offset="1" stop-color="#00B3F9"/>
</linearGradient>
<radialGradient id="paint1_radial_10_1427" cx="0" cy="0" r="1" gradientUnits="userSpaceOnUse" gradientTransform="translate(256 256) rotate(90) scale(210)">
<stop stop-color="white"/>
<stop offset="1" stop-color="white" stop-opacity="0"/>
</radialGradient>
</defs>
</svg>
