<svg width="256" height="256" viewBox="0 0 256 256" fill="none" xmlns="http://www.w3.org/2000/svg">
<g clip-path="url(#clip0_34_5379)">
<rect x="7" y="11" width="244" height="244" rx="122" fill="#D9D9D9"/>
<rect width="256" height="265" fill="black"/>
<path style="mix-blend-mode:screen" d="M179.302 308C283.131 308 367.302 223.83 367.302 120C367.302 16.1705 283.131 -68 179.302 -68C75.4722 -68 -8.69824 16.1705 -8.69824 120C-8.69824 223.83 75.4722 308 179.302 308Z" fill="url(#paint0_radial_34_5379)"/>
<path style="mix-blend-mode:screen" d="M75.105 295.483C155.244 295.483 220.21 230.517 220.21 150.378C220.21 70.2382 155.244 5.27246 75.105 5.27246C-5.03431 5.27246 -70 70.2382 -70 150.378C-70 230.517 -5.03431 295.483 75.105 295.483Z" fill="url(#paint1_radial_34_5379)"/>
<path style="mix-blend-mode:screen" d="M29.5555 218.415C46.6085 218.415 60.4327 204.59 60.4327 187.537C60.4327 170.484 46.6085 156.66 29.5555 156.66C12.5024 156.66 -1.32178 170.484 -1.32178 187.537C-1.32178 204.59 12.5024 218.415 29.5555 218.415Z" fill="url(#paint2_radial_34_5379)"/>
<path style="mix-blend-mode:screen" d="M201.931 166.358C217.67 166.358 230.429 153.599 230.429 137.86C230.429 122.122 217.67 109.363 201.931 109.363C186.193 109.363 173.434 122.122 173.434 137.86C173.434 153.599 186.193 166.358 201.931 166.358Z" fill="url(#paint3_radial_34_5379)"/>
<path style="mix-blend-mode:screen" d="M201.931 166.358C217.67 166.358 230.429 153.599 230.429 137.86C230.429 122.122 217.67 109.363 201.931 109.363C186.193 109.363 173.434 122.122 173.434 137.86C173.434 153.599 186.193 166.358 201.931 166.358Z" fill="url(#paint4_radial_34_5379)"/>
<path style="mix-blend-mode:screen" d="M220.207 80.3468C240.932 70.252 249.549 45.2676 239.455 24.5426C229.36 3.81757 204.375 -4.79986 183.65 5.29497C162.925 15.3898 154.308 40.3741 164.403 61.0991C174.498 81.8241 199.482 90.4416 220.207 80.3468Z" fill="url(#paint5_radial_34_5379)"/>
<g style="mix-blend-mode:overlay">
<path d="M129 244C65.5908 244 14 192.409 14 129C14 65.5908 65.5908 14 129 14C192.409 14 244 65.5908 244 129C244 192.409 192.409 244 129 244ZM129 15.2044C66.2467 15.2044 15.1926 66.2586 15.1926 129.012C15.1926 191.765 66.2467 242.819 129 242.819C191.753 242.819 242.807 191.765 242.807 129.012C242.807 66.2586 191.753 15.2044 129 15.2044Z" fill="white"/>
</g>
<path d="M121.505 66.5637C121.462 65.5695 120.915 64.7883 120.163 64.1776C118.293 63.5195 113.486 64.5655 111.316 65.1708C81.3204 72.2718 59 99.1162 59 131.166C59 135.185 59.355 139.126 60.0294 142.961C60.2992 144.502 61.7759 145.539 63.3165 145.262C64.8642 144.992 65.8936 143.515 65.6238 141.974C64.9991 138.466 64.6796 134.851 64.6796 131.166C64.6796 99.5998 88.3431 73.509 118.999 69.5321C120.454 69.3474 121.569 68.0408 121.505 66.5637Z" fill="#EBEBEB"/>
<path d="M137.521 64.107C135.973 63.8727 134.525 64.9379 134.291 66.4931C134.049 68.0412 135.121 69.4886 136.669 69.723C166.671 74.2825 189.632 100.069 189.632 131.165C189.632 139.61 187.942 147.649 184.882 154.985C184.016 157.058 185.45 159.501 187.864 159.331C188.659 159.274 189.397 158.933 190.093 158.557C191.218 156.112 192.28 151.776 192.67 149.914C194.388 143.957 195.311 137.665 195.311 131.167C195.311 97.1926 170.236 69.0781 137.521 64.107Z" fill="#EBEBEB"/>
<path d="M71.5527 159.528L71.5536 159.53C81.9187 179.592 102.926 193.319 127.157 193.319C144.367 193.319 163.13 185.855 174.575 170.445C175.512 169.188 177.287 168.925 178.551 169.855C179.807 170.793 180.07 172.575 179.133 173.832C166.438 190.926 145.842 199 127.157 199C103.757 199 83.1117 187.261 70.8366 169.38L65.874 162.385C66.1225 160.375 66.4916 157.733 69.2889 157.996C70.8312 158.145 71.464 159.358 71.5527 159.528Z" fill="#EBEBEB"/>
<circle cx="128" cy="128" r="6" fill="#FF5B8C"/>
<circle cx="120" cy="66" r="7" fill="#0085E6" stroke="#EBEBEB" stroke-width="4"/>
<circle cx="189" cy="156" r="7" fill="#00B787" stroke="#EBEBEB" stroke-width="4"/>
<circle cx="70" cy="161" r="7" fill="#D89513" stroke="#EBEBEB" stroke-width="4"/>
<path d="M118 118L96 96M96 96V114M96 96H116" stroke="#EBEBEB" stroke-width="6" stroke-linecap="round" stroke-linejoin="round"/>
<path d="M138 118L160 96M160 96V114M160 96H140" stroke="#EBEBEB" stroke-width="6" stroke-linecap="round" stroke-linejoin="round"/>
<path d="M118 138L96 160M96 160V142M96 160H116" stroke="#EBEBEB" stroke-width="6" stroke-linecap="round" stroke-linejoin="round"/>
<path d="M138 138L160 160M160 160V142M160 160H140" stroke="#EBEBEB" stroke-width="6" stroke-linecap="round" stroke-linejoin="round"/>
</g>
<defs>
<radialGradient id="paint0_radial_34_5379" cx="0" cy="0" r="1" gradientUnits="userSpaceOnUse" gradientTransform="translate(179.302 120) scale(188)">
<stop offset="0.1" stop-color="#CE4140"/>
<stop offset="0.19" stop-color="#A13232"/>
<stop offset="0.28" stop-color="#762524"/>
<stop offset="0.38" stop-color="#521919"/>
<stop offset="0.48" stop-color="#341010"/>
<stop offset="0.58" stop-color="#1D0909"/>
<stop offset="0.7" stop-color="#0C0403"/>
<stop offset="0.83" stop-color="#030000"/>
<stop offset="0.99"/>
</radialGradient>
<radialGradient id="paint1_radial_34_5379" cx="0" cy="0" r="1" gradientUnits="userSpaceOnUse" gradientTransform="translate(75.105 150.378) scale(145.105 145.105)">
<stop offset="0.1" stop-color="#6300EB"/>
<stop offset="0.14" stop-color="#5900D3"/>
<stop offset="0.22" stop-color="#4400A2"/>
<stop offset="0.31" stop-color="#320076"/>
<stop offset="0.41" stop-color="#220052"/>
<stop offset="0.5" stop-color="#150034"/>
<stop offset="0.61" stop-color="#0C001D"/>
<stop offset="0.71" stop-color="#05000C"/>
<stop offset="0.84" stop-color="#010003"/>
<stop offset="0.99"/>
</radialGradient>
<radialGradient id="paint2_radial_34_5379" cx="0" cy="0" r="1" gradientUnits="userSpaceOnUse" gradientTransform="translate(29.5555 187.537) scale(30.8772)">
<stop offset="0.1" stop-color="#6300EB"/>
<stop offset="0.14" stop-color="#5900D3"/>
<stop offset="0.22" stop-color="#4400A2"/>
<stop offset="0.31" stop-color="#320076"/>
<stop offset="0.41" stop-color="#220052"/>
<stop offset="0.5" stop-color="#150034"/>
<stop offset="0.61" stop-color="#0C001D"/>
<stop offset="0.71" stop-color="#05000C"/>
<stop offset="0.84" stop-color="#010003"/>
<stop offset="0.99"/>
</radialGradient>
<radialGradient id="paint3_radial_34_5379" cx="0" cy="0" r="1" gradientUnits="userSpaceOnUse" gradientTransform="translate(201.931 137.86) scale(28.4974 28.4975)">
<stop offset="0.1" stop-color="#CE4140"/>
<stop offset="0.19" stop-color="#A13232"/>
<stop offset="0.28" stop-color="#762524"/>
<stop offset="0.38" stop-color="#521919"/>
<stop offset="0.48" stop-color="#341010"/>
<stop offset="0.58" stop-color="#1D0909"/>
<stop offset="0.7" stop-color="#0C0403"/>
<stop offset="0.83" stop-color="#030000"/>
<stop offset="0.99"/>
</radialGradient>
<radialGradient id="paint4_radial_34_5379" cx="0" cy="0" r="1" gradientUnits="userSpaceOnUse" gradientTransform="translate(201.931 137.86) scale(28.4974 28.4975)">
<stop offset="0.1" stop-color="#CE4140"/>
<stop offset="0.19" stop-color="#A13232"/>
<stop offset="0.28" stop-color="#762524"/>
<stop offset="0.38" stop-color="#521919"/>
<stop offset="0.48" stop-color="#341010"/>
<stop offset="0.58" stop-color="#1D0909"/>
<stop offset="0.7" stop-color="#0C0403"/>
<stop offset="0.83" stop-color="#030000"/>
<stop offset="0.99"/>
</radialGradient>
<radialGradient id="paint5_radial_34_5379" cx="0" cy="0" r="1" gradientUnits="userSpaceOnUse" gradientTransform="translate(201.909 42.8644) scale(41.7407 41.7407)">
<stop offset="0.1" stop-color="#CE4140"/>
<stop offset="0.19" stop-color="#A13232"/>
<stop offset="0.28" stop-color="#762524"/>
<stop offset="0.38" stop-color="#521919"/>
<stop offset="0.48" stop-color="#341010"/>
<stop offset="0.58" stop-color="#1D0909"/>
<stop offset="0.7" stop-color="#0C0403"/>
<stop offset="0.83" stop-color="#030000"/>
<stop offset="0.99"/>
</radialGradient>
<clipPath id="clip0_34_5379">
<rect width="256" height="256" rx="128" fill="white"/>
</clipPath>
</defs>
</svg>
